<?xml version="1.0" encoding="utf-8" ?>
<svg xmlns="http://www.w3.org/2000/svg" xmlns:xlink="http://www.w3.org/1999/xlink" width="1024" height="1024">
	<path fill="#E72154" transform="scale(2 2)" d="M313.025 82.2115C311.966 65.1804 319.612 49.5076 337.941 47.3377C358.717 45.9886 372.186 62.1792 369.41 82.2115C395.389 83.5226 416.659 109.293 421.859 133.373C426.029 152.69 420.426 170.953 409.951 187.147C429.613 212.829 427.059 251.576 406.035 275.603C429.485 300.776 427.894 341.517 404.434 366.104C382.862 388.714 361.111 386.422 332.533 386.421L290.131 386.429C282.833 386.428 275.525 386.28 268.23 386.429L268.253 401.771C268.259 414.669 266.886 426.025 252.306 431.122C252.324 436.236 252.979 447.247 251.752 451.825C248.539 463.813 231.365 464.526 227.843 452.374C226.443 447.544 227.15 436.662 227.164 431.122C216.498 427.6 211.512 416.737 211.497 406.118C211.465 383.624 210.261 367.17 227.744 349.766C242.896 334.681 258.906 333.385 279.503 333.382L305.147 333.393C300.383 331.204 296.775 328.218 292.546 325.25L232.125 325.25L195.979 325.251C178.417 325.261 162.42 326.473 154.94 305.259C145.478 309.145 134.777 317.576 145.15 327.79C151.49 334.032 161.979 330.798 169.98 331.801C198.319 335.356 199.525 380.77 168.309 385.915C112.056 395.186 69.0035 335.997 97.9006 286.062C99.9505 282.52 102.505 279.27 104.931 275.979C83.544 250.968 84.6789 209.752 104.141 183.907C74.3395 148.62 91.6951 94.3246 134.1 78.0516C155.925 69.6759 173.93 73.9869 182.494 96.666C186.142 80.7368 204.367 71.7939 219.065 79.1627C222.287 80.7781 225.228 82.9578 228.358 84.7468C249.623 96.902 276.823 98.7724 299.424 89.2955C304.095 87.3369 308.22 84.5567 312.742 82.3472L313.025 82.2115ZM182.494 108.716C168.666 138.309 149.033 121.035 142.012 135.457C139.1 141.439 141.601 148.741 147.846 151.355C151.18 152.75 155.244 151.605 158.734 151.38C197.765 148.872 201.289 192.682 175.176 203.598C166.48 207.232 156.598 202.814 149.43 210.316C141.412 218.707 140.822 231.822 145.132 242.159C151.96 258.533 162.814 252.917 169.222 275.979C176.874 271.343 181.103 271.969 189.798 271.984L296.575 272C299.329 269.918 301.998 268.406 305.147 266.998L189.416 267.014C184.624 267.02 179.484 267.436 174.764 266.602C148.376 261.938 148.736 220.319 174.278 215.478C178.005 214.772 182.02 215.154 185.803 215.185L271.625 215.208L336.045 215.203C349.279 215.208 360.615 216.609 363.854 232.762L367.408 233.853C376.182 212.136 358.013 210.572 341.31 210.617L254.546 210.623C247.148 210.629 233.354 211.418 226.651 209.532C211.702 205.327 203.415 189.952 209.021 175.251C217.103 154.059 240.051 158.5 258.177 158.5L343.893 158.497C351.579 158.494 359.844 157.877 367.408 159.33C370.264 155.006 372.771 150.581 371.672 145.183C369.801 135.994 362.355 136.25 354.908 135.396C348.292 134.638 342.121 131.41 337.136 127.117C295.537 154.651 241.107 153.339 198.463 128.256C186.917 121.465 186.514 120.419 182.494 108.716ZM347.168 242.338C328.707 244.851 328.18 261.03 330.33 275.979C319.418 275.996 311.095 275.433 302.866 283.776C294.056 292.707 294.621 306.618 303.575 315.248C310.925 322.332 320.348 321.89 329.733 321.378C329.684 330.798 328.442 339.181 335.654 346.427C340.48 351.276 346.765 353.238 353.43 352.372C370.106 348.336 370.59 335.994 370.319 321.378C379.685 321.362 389.776 322.393 396.923 315.178C406.065 305.948 406.107 291.096 396.733 281.95C389.078 274.481 380.082 275.8 370.319 275.603C370.534 266.109 373.182 256.022 365.769 248.369C361.108 243.556 353.717 241.725 347.168 242.338Z"/>
	<path fill="#E72154" transform="scale(2 2)" d="M340.051 288.172C340.063 281.974 338.579 273.843 346.241 272C358.076 268.865 357.094 280.264 357.209 288.172C361.161 287.926 368.397 287.139 371.457 289.944C375.005 293.196 375.092 299.715 371.778 303.151C368.726 306.315 361.384 305.295 357.209 305.259C357.148 311.889 359.427 320.709 351.506 323.486C338.538 325.968 339.99 314.04 340.051 305.259C335.932 305.223 329.163 306.459 325.911 303.583C322.244 300.341 321.756 293.621 325.312 290.113C328.393 287.073 335.923 288.144 340.051 288.172Z"/>
</svg>
