<?xml version="1.0" encoding="utf-8" ?>
<svg xmlns="http://www.w3.org/2000/svg" xmlns:xlink="http://www.w3.org/1999/xlink" width="1024" height="1024">
	<path fill="#E72154" transform="scale(2 2)" d="M276.079 381.798C245.156 397.816 208.559 403.22 174.666 394.341C119.666 379.932 77.1116 327.022 74.6035 270.136C71.9719 210.447 122.011 136.016 157.084 92.1436C174.673 70.1407 193.446 49.3849 212.49 28.6263C215.644 30.1415 240.1 58.8532 243.181 62.4678C264.858 87.9 292.638 121.402 310.067 150.203C245.884 160.572 198.661 216.624 205.211 282.243C208.149 311.676 223.336 343.105 246.386 361.988C180.758 386.999 104.185 333.991 104.272 263.733L88.3725 263.733C87.9958 291.478 98.487 317.602 115.551 339.135C146.942 379.514 202.75 393.395 250.672 377.295C253.986 376.182 257.208 374.857 260.563 373.859C265.694 375.694 270.958 379.406 276.079 381.798Z"/>
	<path fill="#E72154" transform="scale(2 2)" d="M281.675 373.859C272.327 370.13 261.728 362.895 254.18 356.228C176.573 287.677 220.85 164.879 320.94 158.85C333.891 158.171 347.164 160.657 359.397 164.741C358.079 170.276 357.249 175.942 356.136 181.523C347.902 222.827 332.729 270.274 315.798 309.238C313.061 315.535 309.721 321.537 306.83 327.76C303.195 303.267 291.37 274.144 278.454 253.029C274.999 247.38 268.598 243.265 266.77 252.358C267.874 255.205 269.631 257.811 271.183 260.431C281.243 277.417 287.824 294.19 293.393 313.002C302.081 347.864 301.649 343.007 281.675 373.859Z"/>
	<path fill="#E72154" transform="scale(2 2)" d="M331.585 296.993C334.214 289.751 337.158 282.623 339.833 275.396C353.266 239.093 360.819 205.514 369.231 168.355C414.873 187.299 443.272 238.325 436.107 287.044C427.671 344.404 376.919 386.667 319.023 384.185C312.592 383.91 306.301 382.732 299.948 381.798C289.692 395.504 278.413 415.468 265.781 426.039C262.606 428.696 257.611 427.803 257.476 422.949C257.366 418.989 264.073 412.957 266.77 409.963C267.673 408.3 269.252 406.675 270.456 405.217C289.273 382.434 305.108 356.368 317.448 329.518C319.902 324.179 323.468 314.534 326.505 310.078C347.384 299.383 363.624 294.416 384.671 280.071C390.681 275.975 401.031 272.014 393.434 263.733C386.845 263.847 381.748 269.878 376.668 273.369C362.822 282.886 347.172 290.827 331.585 296.993Z"/>
</svg>
